<svg width="217" height="145" viewBox="0 0 217 145" fill="none" xmlns="http://www.w3.org/2000/svg">
<g opacity="0.52" clip-path="url(#clip0_121_2843)">
<path d="M137.771 80.2194C138.531 80.0606 139.197 79.6099 139.627 78.9643C140.057 78.3187 140.216 77.53 140.07 76.7682C140.037 76.5999 139.989 76.4349 139.928 76.275L147.814 69.4771L142.658 68.0186L135.96 74.6976C135.256 75.0332 134.713 75.6322 134.447 76.3651C134.182 77.098 134.216 77.906 134.541 78.6143C134.817 79.2087 135.288 79.6913 135.875 79.983C136.462 80.2746 137.131 80.358 137.771 80.2194Z" fill="#FFB6B6"/>
<path d="M188.98 128.428L189.267 121.983C192.255 120.386 195.587 119.542 198.975 119.525C194.312 123.338 194.895 130.686 191.734 135.813C190.736 137.404 189.392 138.75 187.803 139.752C186.214 140.754 184.419 141.385 182.553 141.598L178.651 143.988C178.115 141.003 178.234 137.937 178.997 135.002C179.76 132.067 181.151 129.333 183.073 126.987C184.164 125.682 185.415 124.519 186.797 123.527C187.732 125.991 188.98 128.428 188.98 128.428Z" fill="#F2F2F2"/>
<path d="M178.926 140.671L175.393 140.671L173.712 127.043L178.927 127.043L178.926 140.671Z" fill="#FFB6B6"/>
<path d="M179.827 144.096L168.435 144.096V143.952C168.435 142.775 168.902 141.648 169.733 140.816C170.565 139.985 171.693 139.517 172.869 139.517H172.869L174.95 137.938L178.833 139.517L179.827 139.518L179.827 144.096Z" fill="#2F2E41"/>
<path d="M162.511 140.671L158.978 140.671L157.297 127.043L162.512 127.043L162.511 140.671Z" fill="#FFB6B6"/>
<path d="M163.412 144.096L152.02 144.096V143.952C152.02 142.775 152.487 141.648 153.318 140.816C154.15 139.985 155.278 139.517 156.454 139.517H156.454L158.535 137.938L162.418 139.517L163.412 139.518L163.412 144.096Z" fill="#2F2E41"/>
<path d="M160.982 66.1641L183.964 66.7386C188.328 69.1093 188.395 74.2404 186.964 80.3324C186.964 80.3324 187.447 83.9533 186.482 84.9189C185.516 85.8844 185.033 85.8845 185.516 87.5742C185.999 89.264 183.448 92.0238 183.758 92.3337C184.068 92.6435 184.792 94.3332 184.792 94.3332L182.378 108.093C182.378 108.093 180.688 131.991 180.205 132.474C179.723 132.956 179.24 132.474 179.723 133.68C180.205 134.887 180.688 134.405 180.205 134.887C179.778 135.349 179.375 135.832 178.998 136.336H173.162C173.162 136.336 172.722 133.922 172.722 133.68C172.722 133.439 172.239 131.991 172.239 131.749C172.239 131.508 172.666 131.081 172.666 131.081C172.814 130.591 172.913 130.087 172.964 129.577C172.964 129.094 174.412 110.507 174.412 110.507L171.515 86.3672L164.515 110.024C164.515 110.024 164.515 130.784 164.032 131.267C163.549 131.749 163.549 131.508 163.791 132.474C164.032 133.439 164.998 133.198 164.273 133.922C163.549 134.646 163.308 133.439 163.549 134.646L163.791 135.853L156.549 135.957C156.549 135.957 155.583 133.922 156.066 133.198C156.549 132.474 156.52 132.671 155.931 131.486C155.342 130.301 155.1 130.06 155.342 129.818C155.583 129.577 155.583 128.293 155.583 128.293L156.79 105.196C156.79 105.196 157.032 80.8152 157.032 80.091C157.05 79.7184 156.981 79.3466 156.831 79.005V78.022L157.756 74.5389L160.982 66.1641Z" fill="#2F2E41"/>
<path d="M137.506 72.3776L141.39 75.5098L162.564 59.097L161.311 30.5312C160.12 31.4839 159.13 32.6632 158.398 34.0009C157.665 35.3387 157.206 36.8083 157.045 38.3248L153.418 54.4613L137.506 72.3776Z" fill="#E6E6E6"/>
<path d="M157.552 73.3803C165.047 74.3381 171.952 71.4362 178.475 69.2458C181.42 68.2569 184.386 69.2892 187.12 67.617C185.938 55.9735 187.085 42.858 189.596 28.8813C189.74 28.09 189.59 27.2737 189.176 26.5846C188.762 25.8954 188.111 25.3806 187.345 25.1361L179.253 22.8146L176.762 20.0664L170.328 21.6997L168.076 25.7707L160.336 31.0002C159.885 31.3053 159.531 31.7343 159.317 32.2358C159.103 32.7372 159.039 33.2897 159.132 33.8269C161.457 46.9715 160.918 60.463 157.552 73.3803Z" fill="#E6E6E6"/>
<path d="M181.472 76.984C182.159 76.6241 182.678 76.0086 182.915 75.2702C183.153 74.5318 183.09 73.7296 182.742 73.0367C182.665 72.8837 182.574 72.7379 182.471 72.6009L188.202 63.9092L182.844 63.9128L178.223 72.166C177.637 72.6809 177.278 73.4054 177.223 74.1829C177.167 74.9605 177.42 75.7286 177.927 76.3213C178.355 76.8176 178.939 77.1536 179.583 77.274C180.228 77.3944 180.894 77.2922 181.472 76.984Z" fill="#FFB6B6"/>
<path d="M179.853 68.8695L183.361 73.3799L195.639 55.0878L194.577 36.5041C194.442 34.1372 193.71 31.843 192.45 29.8349C191.19 27.8267 189.443 26.1699 187.37 25.0186L187.621 53.5843L179.853 68.8695Z" fill="#E6E6E6"/>
<path d="M171.037 19.0027C175.374 19.0027 178.889 15.4873 178.889 11.1508C178.889 6.81427 175.374 3.29883 171.037 3.29883C166.701 3.29883 163.186 6.81427 163.186 11.1508C163.186 15.4873 166.701 19.0027 171.037 19.0027Z" fill="#FFB6B6"/>
<path d="M166.035 6.54299C166.339 6.54537 166.641 6.58505 166.935 6.66115C167.515 6.80055 168.104 6.8993 168.698 6.95668C170.515 7.12769 172.223 7.9029 173.549 9.1585C174.874 10.4141 175.741 12.0777 176.01 13.8835C176.466 13.4857 177.504 12.7539 178.355 13.434C178.368 13.4448 178.376 13.4504 178.406 13.4362C178.971 13.1681 179.974 9.86819 180.005 6.96269C180.021 5.42056 179.778 3.45133 178.531 2.82772L178.465 2.79487L178.448 2.72345C178.364 2.37656 177.433 1.78441 175.815 1.32353C172.875 0.485988 168.492 -1.14557 166.023 1.25555C165.837 2.06502 165.229 3.7973 164.615 3.99365C163.935 4.21098 163.348 4.39854 163.256 5.23239C163.178 6.41901 163.184 7.60958 163.273 8.79542C163.503 8.06979 163.955 7.43468 164.565 6.97951C164.999 6.68739 165.512 6.53506 166.035 6.54299Z" fill="#2F2E41"/>
<path d="M216.917 144.145C216.917 144.184 216.909 144.223 216.894 144.259C216.88 144.295 216.858 144.328 216.83 144.356C216.802 144.384 216.769 144.406 216.733 144.421C216.697 144.436 216.658 144.443 216.619 144.443H0.298187C0.219103 144.443 0.143261 144.412 0.0873402 144.356C0.0314194 144.3 0 144.224 0 144.145C0 144.066 0.0314194 143.99 0.0873402 143.934C0.143261 143.878 0.219103 143.847 0.298187 143.847H216.619C216.658 143.847 216.697 143.854 216.733 143.869C216.769 143.884 216.802 143.906 216.83 143.934C216.858 143.961 216.88 143.994 216.894 144.031C216.909 144.067 216.917 144.106 216.917 144.145Z" fill="#CCCCCC"/>
<path d="M30.7242 67.0205C30.5321 67.0207 30.3479 67.0971 30.212 67.233C30.0761 67.3689 29.9997 67.5531 29.9995 67.7452V142.68C29.9997 142.872 30.0761 143.056 30.212 143.192C30.3479 143.328 30.5321 143.404 30.7242 143.404H124.677C124.869 143.404 125.053 143.328 125.189 143.192C125.325 143.056 125.401 142.872 125.402 142.68V79.7737C125.401 79.5816 125.325 79.3974 125.189 79.2615C125.053 79.1256 124.869 79.0492 124.677 79.0489H70.7542C70.2068 79.0494 69.679 78.8455 69.2741 78.4771L57.1515 67.4623C56.8388 67.1777 56.4311 67.0202 56.0082 67.0205H30.7242Z" fill="#3F3D56"/>
<path d="M108.653 105.326L74.0442 90.4473C73.896 90.3833 73.7367 90.3492 73.5753 90.3468C73.4139 90.3445 73.2536 90.374 73.1036 90.4336C72.9536 90.4933 72.8169 90.5819 72.7012 90.6945C72.5855 90.807 72.4932 90.9413 72.4294 91.0896C72.3657 91.2378 72.3318 91.3973 72.3297 91.5586C72.3276 91.72 72.3574 91.8803 72.4173 92.0301C72.4772 92.18 72.566 92.3166 72.6788 92.4321C72.7915 92.5476 72.9259 92.6398 73.0743 92.7033L107.683 107.582C107.831 107.646 107.991 107.68 108.152 107.683C108.314 107.685 108.474 107.656 108.624 107.596C108.774 107.536 108.911 107.448 109.026 107.335C109.142 107.223 109.234 107.088 109.298 106.94C109.362 106.792 109.396 106.632 109.398 106.471C109.4 106.309 109.37 106.149 109.31 105.999C109.25 105.849 109.161 105.713 109.049 105.597C108.936 105.482 108.802 105.39 108.653 105.326Z" fill="#E4E4E4"/>
<path d="M74.7118 106.629L54.4348 111.191C54.3478 111.211 54.2656 111.247 54.1927 111.298C54.1198 111.349 54.0578 111.414 54.0101 111.49C53.9624 111.565 53.93 111.649 53.9148 111.736C53.8995 111.824 53.9018 111.914 53.9213 112.001C53.9409 112.088 53.9773 112.17 54.0287 112.243C54.08 112.316 54.1452 112.378 54.2206 112.425C54.2959 112.473 54.3798 112.505 54.4676 112.52C54.5554 112.535 54.6453 112.533 54.7321 112.513L75.0092 107.951C75.0962 107.932 75.1785 107.895 75.2515 107.844C75.3244 107.793 75.3865 107.728 75.4343 107.653C75.482 107.577 75.5145 107.494 75.5297 107.406C75.545 107.318 75.5428 107.228 75.5232 107.141C75.5037 107.054 75.4671 106.972 75.4157 106.899C75.3643 106.826 75.2991 106.764 75.2237 106.717C75.1483 106.669 75.0643 106.637 74.9765 106.622C74.8887 106.607 74.7987 106.609 74.7118 106.629Z" fill="#E4E4E4"/>
<path d="M74.1237 104.016L53.8466 108.577C53.6712 108.617 53.5186 108.725 53.4224 108.877C53.3263 109.028 53.2944 109.212 53.3339 109.388C53.3734 109.563 53.481 109.716 53.6329 109.812C53.7849 109.908 53.9689 109.94 54.1443 109.901L74.4214 105.339C74.5968 105.299 74.7494 105.192 74.8456 105.04C74.9417 104.888 74.9736 104.704 74.9341 104.528C74.8946 104.353 74.7871 104.2 74.6351 104.104C74.4831 104.008 74.2992 103.976 74.1237 104.016Z" fill="#E4E4E4"/>
<path d="M62.0485 103.988L53.2587 105.965C53.1719 105.985 53.0898 106.021 53.0171 106.072C52.9444 106.124 52.8825 106.189 52.8349 106.264C52.7874 106.339 52.7551 106.423 52.7399 106.51C52.7247 106.598 52.727 106.688 52.7465 106.775C52.766 106.862 52.8025 106.944 52.8537 107.016C52.905 107.089 52.97 107.151 53.0452 107.198C53.1204 107.246 53.2042 107.278 53.2918 107.294C53.3795 107.309 53.4693 107.306 53.5561 107.287L62.3458 105.309C62.4328 105.29 62.5152 105.254 62.5881 105.203C62.6611 105.151 62.7232 105.086 62.7709 105.011C62.8187 104.936 62.8511 104.852 62.8664 104.764C62.8816 104.676 62.8794 104.586 62.8599 104.499C62.8403 104.412 62.8038 104.33 62.7524 104.257C62.701 104.185 62.6357 104.123 62.5604 104.075C62.485 104.028 62.401 103.995 62.3131 103.98C62.2253 103.965 62.1354 103.968 62.0485 103.988Z" fill="#E4E4E4"/>
<path d="M72.3044 95.9296L52.0273 100.492C51.9404 100.511 51.8583 100.548 51.7855 100.599C51.7127 100.65 51.6507 100.715 51.6031 100.791C51.5069 100.943 51.4751 101.126 51.5146 101.302C51.5541 101.477 51.6616 101.63 51.8136 101.726C51.9656 101.822 52.1495 101.854 52.325 101.815L72.602 97.2527C72.7775 97.2133 72.9301 97.1057 73.0262 96.9537C73.1224 96.8017 73.1542 96.6178 73.1148 96.4423C73.0753 96.2669 72.9677 96.1143 72.8157 96.0181C72.6638 95.922 72.4798 95.8902 72.3044 95.9296Z" fill="#E4E4E4"/>
<path d="M71.7167 93.3174L51.4397 97.8794C51.3527 97.8987 51.2705 97.9351 51.1976 97.9863C51.1247 98.0375 51.0627 98.1026 51.015 98.1778C50.9673 98.253 50.9349 98.3369 50.9196 98.4247C50.9044 98.5124 50.9066 98.6023 50.9262 98.6892C50.9457 98.7761 50.9822 98.8583 51.0336 98.9311C51.0849 99.0038 51.1501 99.0658 51.2254 99.1133C51.3008 99.1609 51.3847 99.1931 51.4725 99.2082C51.5603 99.2232 51.6502 99.2208 51.737 99.2011L72.0141 94.6392C72.1009 94.6197 72.1831 94.5834 72.2559 94.5321C72.3287 94.4809 72.3907 94.4158 72.4383 94.3406C72.4859 94.2654 72.5183 94.1816 72.5335 94.0939C72.5487 94.0062 72.5464 93.9163 72.5269 93.8295C72.5074 93.7427 72.4709 93.6605 72.4196 93.5878C72.3683 93.515 72.3032 93.4531 72.2279 93.4056C72.1527 93.358 72.0688 93.3257 71.9811 93.3106C71.8934 93.2955 71.8035 93.2978 71.7167 93.3174Z" fill="#E4E4E4"/>
<path d="M59.6413 93.288L50.8515 95.2655C50.6761 95.305 50.5235 95.4126 50.4273 95.5646C50.3312 95.7165 50.2993 95.9005 50.3388 96.0759C50.3783 96.2514 50.4858 96.404 50.6378 96.5001C50.7898 96.5963 50.9738 96.6281 51.1492 96.5887L59.939 94.6111C60.1144 94.5717 60.267 94.4641 60.3632 94.3121C60.4593 94.1601 60.4912 93.9762 60.4517 93.8007C60.4122 93.6253 60.3047 93.4727 60.1527 93.3765C60.0007 93.2804 59.8168 93.2485 59.6413 93.288Z" fill="#E4E4E4"/>
<path d="M30.1017 86.7022C30.0065 86.7021 29.9123 86.7209 29.8244 86.7573C29.7365 86.7937 29.6566 86.847 29.5893 86.9143C29.522 86.9816 29.4686 87.0614 29.4322 87.1493C29.3957 87.2372 29.377 87.3315 29.377 87.4266C29.377 87.4538 29.3993 143.262 29.3993 143.262C29.4191 143.439 29.5035 143.602 29.6364 143.721C29.7693 143.84 29.9412 143.906 30.1194 143.905H131.045C131.223 143.906 131.395 143.84 131.528 143.721C131.661 143.602 131.745 143.439 131.765 143.262L138.047 87.508C138.059 87.4066 138.048 87.304 138.018 87.2068C137.987 87.1096 137.935 87.02 137.868 86.9439C137.8 86.8675 137.717 86.8063 137.624 86.7646C137.53 86.7229 137.429 86.7016 137.327 86.7022L30.1017 86.7022Z" fill="#3F3D56"/>
<path d="M37.2235 89.7916C36.1996 89.7946 35.218 90.2003 34.4908 90.9212C33.7636 91.642 33.3493 92.6201 33.3374 93.644L33.4634 136.895C33.4589 137.409 33.5561 137.918 33.7494 138.393C33.9427 138.868 34.2283 139.301 34.5896 139.665C34.9509 140.03 35.3809 140.319 35.8546 140.517C36.3283 140.714 36.8365 140.816 37.3497 140.816H101.417C108.764 140.82 115.856 138.116 121.335 133.22C126.814 128.324 130.295 121.579 131.113 114.277L133.385 94.1131C133.446 93.5694 133.392 93.019 133.226 92.4977C133.06 91.9765 132.786 91.4962 132.421 91.0882C132.057 90.6803 131.61 90.3539 131.111 90.1305C130.611 89.9071 130.07 89.7916 129.523 89.7916H37.2235ZM135.402 89.7916L135.391 89.541H135.402V89.7916Z" fill="#275DCE"/>
<path d="M65.209 122.196H40.3903C40.1338 122.196 39.8879 122.094 39.7066 121.913C39.5252 121.731 39.4233 121.485 39.4233 121.229C39.4233 120.972 39.5252 120.726 39.7066 120.545C39.8879 120.364 40.1338 120.262 40.3903 120.262H65.209C66.456 120.244 66.4685 122.213 65.209 122.196Z" fill="#E4E4E4"/>
<path d="M98.6426 127.253H40.3903C40.1338 127.253 39.8879 127.152 39.7066 126.97C39.5252 126.789 39.4233 126.543 39.4233 126.286C39.4233 126.03 39.5252 125.784 39.7066 125.603C39.8879 125.421 40.1338 125.319 40.3903 125.319H98.6426C99.8896 125.302 99.9021 127.271 98.6426 127.253Z" fill="#E4E4E4"/>
</g>
<defs>
<clipPath id="clip0_121_2843">
<rect width="216.917" height="144.443" fill="white"/>
</clipPath>
</defs>
</svg>
